  0
SECTION
  2
HEADER
  9
$ACADVER
  1
AC1014
  9
$HANDSEED
  5
FFFF
  9
$MEASUREMENT
 70
     1
  0
ENDSEC
  0
SECTION
  2
TABLES
  0
TABLE
  2
VPORT
  5
8
330
0
100
AcDbSymbolTable
 70
     4
  0
VPORT
  5
2E
330
8
100
AcDbSymbolTableRecord
100
AcDbViewportTableRecord
  2
*ACTIVE
 70
     0
 10
0.0
 20
0.0
 11
1.0
 21
1.0
 12
210.0
 22
148.5
 13
0.0
 23
0.0
 14
10.0
 24
10.0
 15
10.0
 25
10.0
 16
0.0
 26
0.0
 36
1.0
 17
0.0
 27
0.0
 37
0.0
 40
341.0
 41
1.24
 42
50.0
 43
0.0
 44
0.0
 50
0.0
 51
0.0
 71
     0
 72
   100
 73
     1
 74
     3
 75
     0
 76
     0
 77
     0
 78
     0
  0
ENDTAB
  0
TABLE
  2
LTYPE
  5
5
330
0
100
AcDbSymbolTable
 70
     1
  0
LTYPE
  5
14
330
5
100
AcDbSymbolTableRecord
100
AcDbLinetypeTableRecord
  2
BYBLOCK
 70
     0
  3

 72
    65
 73
     0
 40
0.0
  0
LTYPE
  5
15
330
5
100
AcDbSymbolTableRecord
100
AcDbLinetypeTableRecord
  2
BYLAYER
 70
     0
  3

 72
    65
 73
     0
 40
0.0
  0
LTYPE
  5
16
330
5
100
AcDbSymbolTableRecord
100
AcDbLinetypeTableRecord
  2
CONTINUOUS
 70
     0
  3
Solid line
 72
    65
 73
     0
 40
0.0
  0
ENDTAB
  0
TABLE
  2
LAYER
  5
2
100
AcDbSymbolTable
 70
3
  0
LAYER
  5
50
100
AcDbSymbolTableRecord
100
AcDbLayerTableRecord
  2
0
 70
0
  6
CONTINUOUS
  0
LAYER
  5
51
100
AcDbSymbolTableRecord
100
AcDbLayerTableRecord
  2
Layer_1
 70
0
  6
CONTINUOUS
  0
LAYER
  5
52
100
AcDbSymbolTableRecord
100
AcDbLayerTableRecord
  2
Layer_2
 70
0
  6
CONTINUOUS
  0
ENDTAB
  0
TABLE
  2
STYLE
  5
3
330
0
100
AcDbSymbolTable
 70
     1
  0
STYLE
  5
11
330
3
100
AcDbSymbolTableRecord
100
AcDbTextStyleTableRecord
  2
STANDARD
 70
     0
 40
0.0
 41
1.0
 50
0.0
 71
     0
 42
2.5
  3
txt
  4

  0
ENDTAB
  0
TABLE
  2
VIEW
  5
6
330
0
100
AcDbSymbolTable
 70
     0
  0
ENDTAB
  0
TABLE
  2
UCS
  5
7
330
0
100
AcDbSymbolTable
 70
     0
  0
ENDTAB
  0
TABLE
  2
APPID
  5
9
330
0
100
AcDbSymbolTable
 70
     2
  0
APPID
  5
12
330
9
100
AcDbSymbolTableRecord
100
AcDbRegAppTableRecord
  2
ACAD
 70
     0
  0
ENDTAB
  0
TABLE
  2
DIMSTYLE
  5
A
330
0
100
AcDbSymbolTable
 70
     1
  0
DIMSTYLE
105
27
330
A
100
AcDbSymbolTableRecord
100
AcDbDimStyleTableRecord
  2
ISO-25
 70
     0
  3

  4

  5

  6

  7

 40
1.0
 41
2.5
 42
0.625
 43
3.75
 44
1.25
 45
0.0
 46
0.0
 47
0.0
 48
0.0
140
2.5
141
2.5
142
0.0
143
0.03937007874016
144
1.0
145
0.0
146
1.0
147
0.625
 71
     0
 72
     0
 73
     0
 74
     0
 75
     0
 76
     0
 77
     1
 78
     8
170
     0
171
     3
172
     1
173
     0
174
     0
175
     0
176
     0
177
     0
178
     0
270
     2
271
     2
272
     2
273
     2
274
     3
340
11
275
     0
280
     0
281
     0
282
     0
283
     0
284
     8
285
     0
286
     0
287
     3
288
     0
  0
ENDTAB
  0
TABLE
  2
BLOCK_RECORD
  5
1
330
0
100
AcDbSymbolTable
 70
     1
  0
BLOCK_RECORD
  5
1F
330
1
100
AcDbSymbolTableRecord
100
AcDbBlockTableRecord
  2
*MODEL_SPACE
  0
BLOCK_RECORD
  5
1B
330
1
100
AcDbSymbolTableRecord
100
AcDbBlockTableRecord
  2
*PAPER_SPACE
  0
ENDTAB
  0
ENDSEC
  0
SECTION
  2
BLOCKS
  0
BLOCK
  5
20
330
1F
100
AcDbEntity
  8
0
100
AcDbBlockBegin
  2
*MODEL_SPACE
 70
     0
 10
0.0
 20
0.0
 30
0.0
  3
*MODEL_SPACE
  1

  0
ENDBLK
  5
21
330
1F
100
AcDbEntity
  8
0
100
AcDbBlockEnd
  0
BLOCK
  5
1C
330
1B
100
AcDbEntity
 67
     1
  8
0
100
AcDbBlockBegin
  2
*PAPER_SPACE
  1

  0
ENDBLK
  5
1D
330
1B
100
AcDbEntity
 67
     1
  8
0
100
AcDbBlockEnd
  0
ENDSEC
  0
SECTION
  2
ENTITIES
  0
SPLINE
  5
100
100
AcDbEntity
  8
Layer_1
 62
7
100
AcDbSpline
 70
8
 71
3
 72
8
 73
4
 74
0
 40
0
 40
0
 40
0
 40
0
 40
1
 40
1
 40
1
 40
1
 10
73.299916
 20
140.047636
 30
0.0
 10
73.299916
 20
140.047636
 30
0.0
 10
73.299400
 20
140.046604
 30
0.0
 10
73.299400
 20
140.046603
 30
0.0
  0
LWPOLYLINE
  5
101
100
AcDbEntity
  8
Layer_1
 62
7
100
AcDbPolyline
 90
3
 70
0
 10
74.892067
 20
141.032589
 30
0.0
 10
73.849754
 20
140.387150
 30
0.0
 10
73.299916
 20
140.047636
 30
0.0
  0
SPLINE
  5
102
100
AcDbEntity
  8
Layer_1
 62
7
100
AcDbSpline
 70
8
 71
3
 72
8
 73
4
 74
0
 40
0
 40
0
 40
0
 40
0
 40
1
 40
1
 40
1
 40
1
 10
73.182094
 20
139.853850
 30
0.0
 10
72.577558
 20
138.870546
 30
0.0
 10
67.595438
 20
130.593898
 30
0.0
 10
66.248667
 20
122.584103
 30
0.0
  0
SPLINE
  5
103
100
AcDbEntity
  8
Layer_1
 62
7
100
AcDbSpline
 70
8
 71
3
 72
8
 73
4
 74
0
 40
0
 40
0
 40
0
 40
0
 40
1
 40
1
 40
1
 40
1
 10
66.248667
 20
122.584103
 30
0.0
 10
65.757836
 20
119.664926
 30
0.0
 10
64.871143
 20
117.683324
 30
0.0
 10
64.157324
 20
116.470781
 30
0.0
  0
SPLINE
  5
104
100
AcDbEntity
  8
Layer_1
 62
7
100
AcDbSpline
 70
8
 71
3
 72
8
 73
4
 74
0
 40
0
 40
0
 40
0
 40
0
 40
1
 40
1
 40
1
 40
1
 10
64.157324
 20
116.470781
 30
0.0
 10
61.089472
 20
116.222692
 30
0.0
 10
57.880542
 20
115.722749
 30
0.0
 10
54.330016
 20
114.912737
 30
0.0
  0
SPLINE
  5
105
100
AcDbEntity
  8
Layer_1
 62
7
100
AcDbSpline
 70
8
 71
3
 72
8
 73
4
 74
0
 40
0
 40
0
 40
0
 40
0
 40
1
 40
1
 40
1
 40
1
 10
54.330016
 20
114.912737
 30
0.0
 10
54.330016
 20
114.912737
 30
0.0
 10
49.992501
 20
116.785913
 30
0.0
 10
44.704247
 20
115.286874
 30
0.0
  0
SPLINE
  5
106
100
AcDbEntity
  8
Layer_1
 62
7
100
AcDbSpline
 70
8
 71
3
 72
8
 73
4
 74
0
 40
0
 40
0
 40
0
 40
0
 40
1
 40
1
 40
1
 40
1
 10
44.704247
 20
115.286874
 30
0.0
 10
33.345452
 20
112.067054
 30
0.0
 10
22.215201
 20
100.795770
 30
0.0
 10
17.668688
 20
87.597610
 30
0.0
  0
SPLINE
  5
107
100
AcDbEntity
  8
Layer_1
 62
7
100
AcDbSpline
 70
8
 71
3
 72
8
 73
4
 74
0
 40
0
 40
0
 40
0
 40
0
 40
1
 40
1
 40
1
 40
1
 10
17.668688
 20
87.597610
 30
0.0
 10
9.159714
 20
62.896738
 30
0.0
 10
17.962310
 20
35.015016
 30
0.0
 10
31.923116
 20
27.674654
 30
0.0
  0
SPLINE
  5
108
100
AcDbEntity
  8
Layer_1
 62
7
100
AcDbSpline
 70
8
 71
3
 72
8
 73
4
 74
0
 40
0
 40
0
 40
0
 40
0
 40
1
 40
1
 40
1
 40
1
 10
31.923116
 20
27.674654
 30
0.0
 10
36.755471
 20
25.847002
 30
0.0
 10
39.938647
 20
28.377453
 30
0.0
 10
39.938647
 20
28.377453
 30
0.0
  0
SPLINE
  5
109
100
AcDbEntity
  8
Layer_1
 62
7
100
AcDbSpline
 70
8
 71
3
 72
8
 73
4
 74
0
 40
0
 40
0
 40
0
 40
0
 40
1
 40
1
 40
1
 40
1
 10
39.938647
 20
28.377453
 30
0.0
 10
39.938647
 20
28.377453
 30
0.0
 10
41.371942
 20
26.235368
 30
0.0
 10
43.838150
 20
24.161173
 30
0.0
  0
SPLINE
  5
10a
100
AcDbEntity
  8
Layer_1
 62
7
100
AcDbSpline
 70
8
 71
3
 72
8
 73
4
 74
0
 40
0
 40
0
 40
0
 40
0
 40
1
 40
1
 40
1
 40
1
 10
43.838150
 20
24.161173
 30
0.0
 10
47.708525
 20
20.832320
 30
0.0
 10
54.174912
 20
19.979462
 30
0.0
 10
58.135984
 20
21.115882
 30
0.0
  0
SPLINE
  5
10b
100
AcDbEntity
  8
Layer_1
 62
7
100
AcDbSpline
 70
8
 71
3
 72
8
 73
4
 74
0
 40
0
 40
0
 40
0
 40
0
 40
1
 40
1
 40
1
 40
1
 10
58.135984
 20
21.115882
 30
0.0
 10
61.905212
 20
17.508743
 30
0.0
 10
67.271303
 20
16.404134
 30
0.0
 10
73.733481
 20
16.196286
 30
0.0
  0
SPLINE
  5
10c
100
AcDbEntity
  8
Layer_1
 62
7
100
AcDbSpline
 70
8
 71
3
 72
8
 73
4
 74
0
 40
0
 40
0
 40
0
 40
0
 40
1
 40
1
 40
1
 40
1
 10
73.733481
 20
16.196286
 30
0.0
 10
79.636753
 20
15.976864
 30
0.0
 10
84.716186
 20
17.491323
 30
0.0
 10
87.381228
 20
20.413082
 30
0.0
  0
SPLINE
  5
10d
100
AcDbEntity
  8
Layer_1
 62
7
100
AcDbSpline
 70
8
 71
3
 72
8
 73
4
 74
0
 40
0
 40
0
 40
0
 40
0
 40
1
 40
1
 40
1
 40
1
 10
87.381228
 20
20.413082
 30
0.0
 10
87.381228
 20
20.413082
 30
0.0
 10
91.276025
 20
18.621073
 30
0.0
 10
94.097097
 20
18.772872
 30
0.0
  0
SPLINE
  5
10e
100
AcDbEntity
  8
Layer_1
 62
7
100
AcDbSpline
 70
8
 71
3
 72
8
 73
4
 74
0
 40
0
 40
0
 40
0
 40
0
 40
1
 40
1
 40
1
 40
1
 10
94.097097
 20
18.772872
 30
0.0
 10
101.188046
 20
19.154428
 30
0.0
 10
106.441570
 20
23.023718
 30
0.0
 10
108.593368
 20
27.038000
 30
0.0
  0
SPLINE
  5
10f
100
AcDbEntity
  8
Layer_1
 62
7
100
AcDbSpline
 70
8
 71
3
 72
8
 73
4
 74
0
 40
0
 40
0
 40
0
 40
0
 40
1
 40
1
 40
1
 40
1
 10
108.593368
 20
27.038000
 30
0.0
 10
108.593368
 20
27.038000
 30
0.0
 10
112.184037
 20
25.273065
 30
0.0
 10
116.637839
 20
27.733563
 30
0.0
  0
SPLINE
  5
110
100
AcDbEntity
  8
Layer_1
 62
7
100
AcDbSpline
 70
8
 71
3
 72
8
 73
4
 74
0
 40
0
 40
0
 40
0
 40
0
 40
1
 40
1
 40
1
 40
1
 10
116.637839
 20
27.733563
 30
0.0
 10
132.011742
 20
36.226865
 30
0.0
 10
143.465046
 20
64.324538
 30
0.0
 10
129.895943
 20
94.871066
 30
0.0
  0
SPLINE
  5
111
100
AcDbEntity
  8
Layer_1
 62
7
100
AcDbSpline
 70
8
 71
3
 72
8
 73
4
 74
0
 40
0
 40
0
 40
0
 40
0
 40
1
 40
1
 40
1
 40
1
 10
129.895943
 20
94.871066
 30
0.0
 10
124.308827
 20
107.448686
 30
0.0
 10
112.068887
 20
114.044708
 30
0.0
 10
103.827768
 20
115.716306
 30
0.0
  0
SPLINE
  5
112
100
AcDbEntity
  8
Layer_1
 62
7
100
AcDbSpline
 70
8
 71
3
 72
8
 73
4
 74
0
 40
0
 40
0
 40
0
 40
0
 40
1
 40
1
 40
1
 40
1
 10
103.827768
 20
115.716306
 30
0.0
 10
97.772654
 20
116.944502
 30
0.0
 10
92.073256
 20
118.375091
 30
0.0
 10
81.369191
 20
115.412448
 30
0.0
  0
SPLINE
  5
113
100
AcDbEntity
  8
Layer_1
 62
7
100
AcDbSpline
 70
8
 71
3
 72
8
 73
4
 74
0
 40
0
 40
0
 40
0
 40
0
 40
1
 40
1
 40
1
 40
1
 10
81.369191
 20
115.412448
 30
0.0
 10
80.994049
 20
115.478721
 30
0.0
 10
80.626503
 20
115.539040
 30
0.0
 10
80.257113
 20
115.600551
 30
0.0
  0
SPLINE
  5
114
100
AcDbEntity
  8
Layer_1
 62
7
100
AcDbSpline
 70
8
 71
3
 72
8
 73
4
 74
0
 40
0
 40
0
 40
0
 40
0
 40
1
 40
1
 40
1
 40
1
 10
80.257113
 20
115.600551
 30
0.0
 10
77.340868
 20
117.163386
 30
0.0
 10
73.409477
 20
120.607028
 30
0.0
 10
74.892583
 20
127.503183
 30
0.0
  0
SPLINE
  5
115
100
AcDbEntity
  8
Layer_1
 62
7
100
AcDbSpline
 70
8
 71
3
 72
8
 73
4
 74
0
 40
0
 40
0
 40
0
 40
0
 40
1
 40
1
 40
1
 40
1
 10
74.892583
 20
127.503183
 30
0.0
 10
76.013424
 20
132.714848
 30
0.0
 10
79.566553
 20
137.690330
 30
0.0
 10
79.653533
 20
137.811597
 30
0.0
  0
LWPOLYLINE
  5
116
100
AcDbEntity
  8
Layer_1
 62
7
100
AcDbPolyline
 90
2
 70
0
 10
73.299400
 20
140.046603
 30
0.0
 10
73.182094
 20
139.853850
 30
0.0
  0
SPLINE
  5
117
100
AcDbEntity
  8
Layer_1
 62
7
100
AcDbSpline
 70
8
 71
3
 72
8
 73
4
 74
0
 40
0
 40
0
 40
0
 40
0
 40
1
 40
1
 40
1
 40
1
 10
79.670069
 20
137.833818
 30
0.0
 10
79.670069
 20
137.833818
 30
0.0
 10
79.637404
 20
138.380649
 30
0.0
 10
79.450446
 20
138.961398
 30
0.0
  0
SPLINE
  5
118
100
AcDbEntity
  8
Layer_1
 62
7
100
AcDbSpline
 70
8
 71
3
 72
8
 73
4
 74
0
 40
0
 40
0
 40
0
 40
0
 40
1
 40
1
 40
1
 40
1
 10
79.450446
 20
138.961398
 30
0.0
 10
79.439360
 20
138.995910
 30
0.0
 10
79.425956
 20
139.030622
 30
0.0
 10
79.413754
 20
139.065267
 30
0.0
  0
SPLINE
  5
119
100
AcDbEntity
  8
Layer_1
 62
7
100
AcDbSpline
 70
8
 71
3
 72
8
 73
4
 74
0
 40
0
 40
0
 40
0
 40
0
 40
1
 40
1
 40
1
 40
1
 10
79.413754
 20
139.065267
 30
0.0
 10
79.220597
 20
139.613726
 30
0.0
 10
78.886090
 20
140.165375
 30
0.0
 10
78.304261
 20
140.293616
 30
0.0
  0
SPLINE
  5
11a
100
AcDbEntity
  8
Layer_1
 62
7
100
AcDbSpline
 70
8
 71
3
 72
8
 73
4
 74
0
 40
0
 40
0
 40
0
 40
0
 40
1
 40
1
 40
1
 40
1
 10
78.304261
 20
140.293616
 30
0.0
 10
77.591410
 20
140.450736
 30
0.0
 10
76.930729
 20
140.591832
 30
0.0
 10
76.164340
 20
140.756637
 30
0.0
  0
SPLINE
  5
11b
100
AcDbEntity
  8
Layer_1
 62
7
100
AcDbSpline
 70
8
 71
3
 72
8
 73
4
 74
0
 40
0
 40
0
 40
0
 40
0
 40
1
 40
1
 40
1
 40
1
 10
76.164340
 20
140.756637
 30
0.0
 10
75.708611
 20
140.855079
 30
0.0
 10
74.892067
 20
141.032589
 30
0.0
 10
74.892067
 20
141.032589
 30
0.0
  0
LWPOLYLINE
  5
11c
100
AcDbEntity
  8
Layer_1
 62
7
100
AcDbPolyline
 90
2
 70
0
 10
79.653533
 20
137.811597
 30
0.0
 10
79.670069
 20
137.833818
 30
0.0
  0
SPLINE
  5
11d
100
AcDbEntity
  8
Layer_2
 62
7
100
AcDbSpline
 70
8
 71
3
 72
8
 73
4
 74
0
 40
0
 40
0
 40
0
 40
0
 40
1
 40
1
 40
1
 40
1
 10
53.396543
 20
94.383996
 30
0.0
 10
50.282672
 20
96.385763
 30
0.0
 10
46.501581
 20
100.166854
 30
0.0
 10
44.277426
 20
101.278959
 30
0.0
  0
SPLINE
  5
11e
100
AcDbEntity
  8
Layer_2
 62
7
100
AcDbSpline
 70
8
 71
3
 72
8
 73
4
 74
0
 40
0
 40
0
 40
0
 40
0
 40
1
 40
1
 40
1
 40
1
 10
44.277426
 20
101.278959
 30
0.0
 10
41.163554
 20
102.835840
 30
0.0
 10
40.718723
 20
105.949712
 30
0.0
 10
38.049737
 20
103.280671
 30
0.0
  0
SPLINE
  5
11f
100
AcDbEntity
  8
Layer_2
 62
7
100
AcDbSpline
 70
8
 71
3
 72
8
 73
4
 74
0
 40
0
 40
0
 40
0
 40
0
 40
1
 40
1
 40
1
 40
1
 10
38.049737
 20
103.280671
 30
0.0
 10
29.153008
 20
94.383996
 30
0.0
 10
48.280905
 20
80.816514
 30
0.0
 10
57.622465
 20
80.816514
 30
0.0
  0
LWPOLYLINE
  5
120
100
AcDbEntity
  8
Layer_1
 62
7
100
AcDbPolyline
 90
1
 70
1
 10
74.892067
 20
141.032589
 30
0.0
  0
SPLINE
  5
121
100
AcDbEntity
  8
Layer_2
 62
7
100
AcDbSpline
 70
8
 71
3
 72
8
 73
4
 74
0
 40
0
 40
0
 40
0
 40
0
 40
1
 40
1
 40
1
 40
1
 10
65.184647
 20
80.816514
 30
0.0
 10
69.633012
 20
80.816514
 30
0.0
 10
61.181168
 20
87.489034
 30
0.0
 10
60.513894
 20
88.156307
 30
0.0
  0
SPLINE
  5
122
100
AcDbEntity
  8
Layer_2
 62
7
100
AcDbSpline
 70
8
 71
3
 72
8
 73
4
 74
0
 40
0
 40
0
 40
0
 40
0
 40
1
 40
1
 40
1
 40
1
 10
60.513894
 20
88.156307
 30
0.0
 10
58.512127
 20
90.158074
 30
0.0
 10
56.732803
 20
94.383996
 30
0.0
 10
53.396543
 20
94.383996
 30
0.0
  0
LWPOLYLINE
  5
123
100
AcDbEntity
  8
Layer_2
 62
7
100
AcDbPolyline
 90
2
 70
0
 10
57.622465
 20
80.816514
 30
0.0
 10
65.184647
 20
80.816514
 30
0.0
  0
SPLINE
  5
124
100
AcDbEntity
  8
Layer_2
 62
7
100
AcDbSpline
 70
8
 71
3
 72
8
 73
4
 74
0
 40
0
 40
0
 40
0
 40
0
 40
1
 40
1
 40
1
 40
1
 10
100.424750
 20
94.383996
 30
0.0
 10
103.538620
 20
96.385763
 30
0.0
 10
107.319720
 20
100.166854
 30
0.0
 10
109.543870
 20
101.278959
 30
0.0
  0
SPLINE
  5
125
100
AcDbEntity
  8
Layer_2
 62
7
100
AcDbSpline
 70
8
 71
3
 72
8
 73
4
 74
0
 40
0
 40
0
 40
0
 40
0
 40
1
 40
1
 40
1
 40
1
 10
109.543870
 20
101.278959
 30
0.0
 10
112.657740
 20
102.835840
 30
0.0
 10
113.102580
 20
105.949712
 30
0.0
 10
115.771560
 20
103.280671
 30
0.0
  0
SPLINE
  5
126
100
AcDbEntity
  8
Layer_2
 62
7
100
AcDbSpline
 70
8
 71
3
 72
8
 73
4
 74
0
 40
0
 40
0
 40
0
 40
0
 40
1
 40
1
 40
1
 40
1
 10
115.771560
 20
103.280671
 30
0.0
 10
124.668290
 20
94.383996
 30
0.0
 10
105.540390
 20
80.816514
 30
0.0
 10
96.198828
 20
80.816514
 30
0.0
  0
LWPOLYLINE
  5
127
100
AcDbEntity
  8
Layer_2
 62
7
100
AcDbPolyline
 90
1
 70
1
 10
53.396543
 20
94.383996
 30
0.0
  0
SPLINE
  5
128
100
AcDbEntity
  8
Layer_2
 62
7
100
AcDbSpline
 70
8
 71
3
 72
8
 73
4
 74
0
 40
0
 40
0
 40
0
 40
0
 40
1
 40
1
 40
1
 40
1
 10
88.636644
 20
80.816514
 30
0.0
 10
84.188280
 20
80.816514
 30
0.0
 10
92.640125
 20
87.489034
 30
0.0
 10
93.307398
 20
88.156307
 30
0.0
  0
SPLINE
  5
129
100
AcDbEntity
  8
Layer_2
 62
7
100
AcDbSpline
 70
8
 71
3
 72
8
 73
4
 74
0
 40
0
 40
0
 40
0
 40
0
 40
1
 40
1
 40
1
 40
1
 10
93.307398
 20
88.156307
 30
0.0
 10
95.309166
 20
90.158074
 30
0.0
 10
97.088490
 20
94.383996
 30
0.0
 10
100.424750
 20
94.383996
 30
0.0
  0
LWPOLYLINE
  5
12a
100
AcDbEntity
  8
Layer_2
 62
7
100
AcDbPolyline
 90
2
 70
0
 10
96.198828
 20
80.816514
 30
0.0
 10
88.636644
 20
80.816514
 30
0.0
  0
SPLINE
  5
12b
100
AcDbEntity
  8
Layer_2
 62
7
100
AcDbSpline
 70
8
 71
3
 72
8
 73
4
 74
0
 40
0
 40
0
 40
0
 40
0
 40
1
 40
1
 40
1
 40
1
 10
30.315792
 20
72.517860
 30
0.0
 10
31.575115
 20
63.954465
 30
0.0
 10
39.886645
 20
43.553438
 30
0.0
 10
51.220548
 20
54.887343
 30
0.0
  0
SPLINE
  5
12c
100
AcDbEntity
  8
Layer_2
 62
7
100
AcDbSpline
 70
8
 71
3
 72
8
 73
4
 74
0
 40
0
 40
0
 40
0
 40
0
 40
1
 40
1
 40
1
 40
1
 10
51.220548
 20
54.887343
 30
0.0
 10
52.983599
 20
56.650397
 30
0.0
 10
55.250380
 20
51.613105
 30
0.0
 10
55.250380
 20
50.605649
 30
0.0
  0
SPLINE
  5
12d
100
AcDbEntity
  8
Layer_2
 62
7
100
AcDbSpline
 70
8
 71
3
 72
8
 73
4
 74
0
 40
0
 40
0
 40
0
 40
0
 40
1
 40
1
 40
1
 40
1
 10
55.250380
 20
50.605649
 30
0.0
 10
55.250380
 20
42.294118
 30
0.0
 10
74.643949
 20
54.887343
 30
0.0
 10
76.155136
 20
51.864969
 30
0.0
  0
SPLINE
  5
12e
100
AcDbEntity
  8
Layer_2
 62
7
100
AcDbSpline
 70
8
 71
3
 72
8
 73
4
 74
0
 40
0
 40
0
 40
0
 40
0
 40
1
 40
1
 40
1
 40
1
 10
76.155136
 20
51.864969
 30
0.0
 10
78.925645
 20
46.072088
 30
0.0
 10
83.207340
 20
46.827678
 30
0.0
 10
85.977850
 20
48.086998
 30
0.0
  0
SPLINE
  5
12f
100
AcDbEntity
  8
Layer_2
 62
7
100
AcDbSpline
 70
8
 71
3
 72
8
 73
4
 74
0
 40
0
 40
0
 40
0
 40
0
 40
1
 40
1
 40
1
 40
1
 10
85.977850
 20
48.086998
 30
0.0
 10
87.489040
 20
48.842598
 30
0.0
 10
93.281924
 20
55.894799
 30
0.0
 10
95.044972
 20
54.131751
 30
0.0
  0
SPLINE
  5
130
100
AcDbEntity
  8
Layer_2
 62
7
100
AcDbSpline
 70
8
 71
3
 72
8
 73
4
 74
0
 40
0
 40
0
 40
0
 40
0
 40
1
 40
1
 40
1
 40
1
 10
95.044972
 20
54.131751
 30
0.0
 10
97.311754
 20
51.864969
 30
0.0
 10
98.822945
 20
47.583278
 30
0.0
 10
103.608370
 20
52.368697
 30
0.0
  0
SPLINE
  5
131
100
AcDbEntity
  8
Layer_2
 62
7
100
AcDbSpline
 70
8
 71
3
 72
8
 73
4
 74
0
 40
0
 40
0
 40
0
 40
0
 40
1
 40
1
 40
1
 40
1
 10
103.608370
 20
52.368697
 30
0.0
 10
107.134480
 20
55.894799
 30
0.0
 10
112.675490
 20
57.909717
 30
0.0
 10
114.942270
 20
62.443282
 30
0.0
  0
SPLINE
  5
132
100
AcDbEntity
  8
Layer_2
 62
7
100
AcDbSpline
 70
8
 71
3
 72
8
 73
4
 74
0
 40
0
 40
0
 40
0
 40
0
 40
1
 40
1
 40
1
 40
1
 10
114.942270
 20
62.443282
 30
0.0
 10
115.194140
 20
63.198873
 30
0.0
 10
119.727700
 20
72.769725
 30
0.0
 10
119.979570
 20
73.021589
 30
0.0
  0
SPLINE
  5
133
100
AcDbEntity
  8
Layer_2
 62
7
100
AcDbSpline
 70
8
 71
3
 72
8
 73
4
 74
0
 40
0
 40
0
 40
0
 40
0
 40
1
 40
1
 40
1
 40
1
 10
119.979570
 20
73.021589
 30
0.0
 10
122.246350
 20
75.288370
 30
0.0
 10
119.979570
 20
61.183955
 30
0.0
 10
119.727700
 20
60.428363
 30
0.0
  0
SPLINE
  5
134
100
AcDbEntity
  8
Layer_2
 62
7
100
AcDbSpline
 70
8
 71
3
 72
8
 73
4
 74
0
 40
0
 40
0
 40
0
 40
0
 40
1
 40
1
 40
1
 40
1
 10
119.727700
 20
60.428363
 30
0.0
 10
117.964650
 20
54.635479
 30
0.0
 10
112.927360
 20
43.805298
 30
0.0
 10
108.645660
 20
39.523608
 30
0.0
  0
SPLINE
  5
135
100
AcDbEntity
  8
Layer_2
 62
7
100
AcDbSpline
 70
8
 71
3
 72
8
 73
4
 74
0
 40
0
 40
0
 40
0
 40
0
 40
1
 40
1
 40
1
 40
1
 10
108.645660
 20
39.523608
 30
0.0
 10
104.867700
 20
35.745638
 30
0.0
 10
98.571081
 20
40.027338
 30
0.0
 10
98.571081
 20
43.301578
 30
0.0
  0
SPLINE
  5
136
100
AcDbEntity
  8
Layer_2
 62
7
100
AcDbSpline
 70
8
 71
3
 72
8
 73
4
 74
0
 40
0
 40
0
 40
0
 40
0
 40
1
 40
1
 40
1
 40
1
 10
98.571081
 20
43.301578
 30
0.0
 10
98.571081
 20
43.805298
 30
0.0
 10
92.274462
 20
36.501238
 30
0.0
 10
90.763278
 20
34.990048
 30
0.0
  0
SPLINE
  5
137
100
AcDbEntity
  8
Layer_2
 62
7
100
AcDbSpline
 70
8
 71
3
 72
8
 73
4
 74
0
 40
0
 40
0
 40
0
 40
0
 40
1
 40
1
 40
1
 40
1
 10
90.763278
 20
34.990048
 30
0.0
 10
88.748360
 20
32.975128
 30
0.0
 10
80.688697
 20
38.264278
 30
0.0
 10
78.925645
 20
40.027338
 30
0.0
  0
SPLINE
  5
138
100
AcDbEntity
  8
Layer_2
 62
7
100
AcDbSpline
 70
8
 71
3
 72
8
 73
4
 74
0
 40
0
 40
0
 40
0
 40
0
 40
1
 40
1
 40
1
 40
1
 10
78.925645
 20
40.027338
 30
0.0
 10
74.643949
 20
44.309038
 30
0.0
 10
70.362251
 20
26.678518
 30
0.0
 10
61.295128
 20
35.745638
 30
0.0
  0
SPLINE
  5
139
100
AcDbEntity
  8
Layer_2
 62
7
100
AcDbSpline
 70
8
 71
3
 72
8
 73
4
 74
0
 40
0
 40
0
 40
0
 40
0
 40
1
 40
1
 40
1
 40
1
 10
61.295128
 20
35.745638
 30
0.0
 10
60.287671
 20
36.753098
 30
0.0
 10
55.754110
 20
38.516148
 30
0.0
 10
55.754110
 20
40.279198
 30
0.0
  0
SPLINE
  5
13a
100
AcDbEntity
  8
Layer_2
 62
7
100
AcDbSpline
 70
8
 71
3
 72
8
 73
4
 74
0
 40
0
 40
0
 40
0
 40
0
 40
1
 40
1
 40
1
 40
1
 10
55.754110
 20
40.279198
 30
0.0
 10
55.754110
 20
48.842598
 30
0.0
 10
35.604947
 20
29.449028
 30
0.0
 10
35.604947
 20
45.316488
 30
0.0
  0
SPLINE
  5
13b
100
AcDbEntity
  8
Layer_2
 62
7
100
AcDbSpline
 70
8
 71
3
 72
8
 73
4
 74
0
 40
0
 40
0
 40
0
 40
0
 40
1
 40
1
 40
1
 40
1
 10
35.604947
 20
45.316488
 30
0.0
 10
35.604947
 20
47.835138
 30
0.0
 10
30.315792
 20
53.879887
 30
0.0
 10
30.315792
 20
57.657853
 30
0.0
  0
SPLINE
  5
13c
100
AcDbEntity
  8
Layer_2
 62
7
100
AcDbSpline
 70
8
 71
3
 72
8
 73
4
 74
0
 40
0
 40
0
 40
0
 40
0
 40
1
 40
1
 40
1
 40
1
 10
30.315792
 20
57.657853
 30
0.0
 10
30.315792
 20
59.924635
 30
0.0
 10
29.308335
 20
72.014131
 30
0.0
 10
30.315792
 20
72.517860
 30
0.0
  0
LWPOLYLINE
  5
13d
100
AcDbEntity
  8
Layer_2
 62
7
100
AcDbPolyline
 90
1
 70
1
 10
100.424750
 20
94.383996
 30
0.0
  0
SPLINE
  5
13e
100
AcDbEntity
  8
Layer_2
 62
7
100
AcDbSpline
 70
8
 71
3
 72
8
 73
4
 74
0
 40
0
 40
0
 40
0
 40
0
 40
1
 40
1
 40
1
 40
1
 10
59.100640
 20
90.260310
 30
0.0
 10
59.100640
 20
89.102282
 30
0.0
 10
58.480171
 20
88.032219
 30
0.0
 10
57.472958
 20
87.453205
 30
0.0
  0
SPLINE
  5
13f
100
AcDbEntity
  8
Layer_2
 62
7
100
AcDbSpline
 70
8
 71
3
 72
8
 73
4
 74
0
 40
0
 40
0
 40
0
 40
0
 40
1
 40
1
 40
1
 40
1
 10
57.472958
 20
87.453205
 30
0.0
 10
56.465745
 20
86.874191
 30
0.0
 10
55.224807
 20
86.874191
 30
0.0
 10
54.217594
 20
87.453205
 30
0.0
  0
SPLINE
  5
140
100
AcDbEntity
  8
Layer_2
 62
7
100
AcDbSpline
 70
8
 71
3
 72
8
 73
4
 74
0
 40
0
 40
0
 40
0
 40
0
 40
1
 40
1
 40
1
 40
1
 10
54.217594
 20
87.453205
 30
0.0
 10
53.210381
 20
88.032219
 30
0.0
 10
52.589912
 20
89.102282
 30
0.0
 10
52.589912
 20
90.260310
 30
0.0
  0
SPLINE
  5
141
100
AcDbEntity
  8
Layer_2
 62
7
100
AcDbSpline
 70
8
 71
3
 72
8
 73
4
 74
0
 40
0
 40
0
 40
0
 40
0
 40
1
 40
1
 40
1
 40
1
 10
52.589912
 20
90.260310
 30
0.0
 10
52.589912
 20
91.418339
 30
0.0
 10
53.210381
 20
92.488401
 30
0.0
 10
54.217594
 20
93.067415
 30
0.0
  0
SPLINE
  5
142
100
AcDbEntity
  8
Layer_2
 62
7
100
AcDbSpline
 70
8
 71
3
 72
8
 73
4
 74
0
 40
0
 40
0
 40
0
 40
0
 40
1
 40
1
 40
1
 40
1
 10
54.217594
 20
93.067415
 30
0.0
 10
55.224807
 20
93.646429
 30
0.0
 10
56.465745
 20
93.646429
 30
0.0
 10
57.472958
 20
93.067415
 30
0.0
  0
SPLINE
  5
143
100
AcDbEntity
  8
Layer_2
 62
7
100
AcDbSpline
 70
8
 71
3
 72
8
 73
4
 74
0
 40
0
 40
0
 40
0
 40
0
 40
1
 40
1
 40
1
 40
1
 10
57.472958
 20
93.067415
 30
0.0
 10
58.480171
 20
92.488401
 30
0.0
 10
59.100640
 20
91.418339
 30
0.0
 10
59.100640
 20
90.260310
 30
0.0
  0
LWPOLYLINE
  5
144
100
AcDbEntity
  8
Layer_2
 62
7
100
AcDbPolyline
 90
1
 70
1
 10
30.315792
 20
72.517860
 30
0.0
  0
SPLINE
  5
145
100
AcDbEntity
  8
Layer_2
 62
7
100
AcDbSpline
 70
8
 71
3
 72
8
 73
4
 74
0
 40
0
 40
0
 40
0
 40
0
 40
1
 40
1
 40
1
 40
1
 10
102.241356
 20
90.260310
 30
0.0
 10
102.241356
 20
89.102282
 30
0.0
 10
101.620887
 20
88.032219
 30
0.0
 10
100.613674
 20
87.453205
 30
0.0
  0
SPLINE
  5
146
100
AcDbEntity
  8
Layer_2
 62
7
100
AcDbSpline
 70
8
 71
3
 72
8
 73
4
 74
0
 40
0
 40
0
 40
0
 40
0
 40
1
 40
1
 40
1
 40
1
 10
100.613674
 20
87.453205
 30
0.0
 10
99.606461
 20
86.874191
 30
0.0
 10
98.365523
 20
86.874191
 30
0.0
 10
97.358310
 20
87.453205
 30
0.0
  0
SPLINE
  5
147
100
AcDbEntity
  8
Layer_2
 62
7
100
AcDbSpline
 70
8
 71
3
 72
8
 73
4
 74
0
 40
0
 40
0
 40
0
 40
0
 40
1
 40
1
 40
1
 40
1
 10
97.358310
 20
87.453205
 30
0.0
 10
96.351097
 20
88.032219
 30
0.0
 10
95.730628
 20
89.102282
 30
0.0
 10
95.730628
 20
90.260310
 30
0.0
  0
SPLINE
  5
148
100
AcDbEntity
  8
Layer_2
 62
7
100
AcDbSpline
 70
8
 71
3
 72
8
 73
4
 74
0
 40
0
 40
0
 40
0
 40
0
 40
1
 40
1
 40
1
 40
1
 10
95.730628
 20
90.260310
 30
0.0
 10
95.730628
 20
91.418339
 30
0.0
 10
96.351097
 20
92.488401
 30
0.0
 10
97.358310
 20
93.067415
 30
0.0
  0
SPLINE
  5
149
100
AcDbEntity
  8
Layer_2
 62
7
100
AcDbSpline
 70
8
 71
3
 72
8
 73
4
 74
0
 40
0
 40
0
 40
0
 40
0
 40
1
 40
1
 40
1
 40
1
 10
97.358310
 20
93.067415
 30
0.0
 10
98.365523
 20
93.646429
 30
0.0
 10
99.606461
 20
93.646429
 30
0.0
 10
100.613674
 20
93.067415
 30
0.0
  0
SPLINE
  5
14a
100
AcDbEntity
  8
Layer_2
 62
7
100
AcDbSpline
 70
8
 71
3
 72
8
 73
4
 74
0
 40
0
 40
0
 40
0
 40
0
 40
1
 40
1
 40
1
 40
1
 10
100.613674
 20
93.067415
 30
0.0
 10
101.620887
 20
92.488401
 30
0.0
 10
102.241356
 20
91.418339
 30
0.0
 10
102.241356
 20
90.260310
 30
0.0
  0
LWPOLYLINE
  5
14b
100
AcDbEntity
  8
Layer_2
 62
7
100
AcDbPolyline
 90
1
 70
1
 10
59.100640
 20
90.260310
 30
0.0
  0
LWPOLYLINE
  5
14c
100
AcDbEntity
  8
Layer_2
 62
7
100
AcDbPolyline
 90
1
 70
1
 10
102.241356
 20
90.260310
 30
0.0
  0
ENDSEC
  0
SECTION
  2
OBJECTS
  0
DICTIONARY
  5
C
330
0
100
AcDbDictionary
  3
ACAD_GROUP
350
D
  3
ACAD_MLINESTYLE
350
17
  0
DICTIONARY
  5
D
330
C
100
AcDbDictionary
  0
DICTIONARY
  5
1A
330
C
100
AcDbDictionary
  0
DICTIONARY
  5
17
330
C
100
AcDbDictionary
  3
STANDARD
350
18
  0
DICTIONARY
  5
19
330
C
100
AcDbDictionary
  0
ENDSEC
  0
EOF
