<?xml version="1.0" encoding="UTF-8" standalone="no"?>
<!-- Created with Inkscape (http://www.inkscape.org/) -->

<svg
   xmlns:dc="http://purl.org/dc/elements/1.1/"
   xmlns:cc="http://creativecommons.org/ns#"
   xmlns:rdf="http://www.w3.org/1999/02/22-rdf-syntax-ns#"
   xmlns:svg="http://www.w3.org/2000/svg"
   xmlns="http://www.w3.org/2000/svg"
   xmlns:xlink="http://www.w3.org/1999/xlink"
   xmlns:sodipodi="http://sodipodi.sourceforge.net/DTD/sodipodi-0.dtd"
   xmlns:inkscape="http://www.inkscape.org/namespaces/inkscape"
   width="601.25525"
   height="657.12744"
   id="svg2"
   version="1.1"
   inkscape:version="0.48.4 r9939"
   sodipodi:docname="Nowy dokument 1">
  <defs
     id="defs4">
    <linearGradient
       y2="156.40709"
       y1="171.89322"
       xlink:href="#linearGradient4310"
       x2="519.97998"
       x1="450.78772"
       id="linearGradient4605"
       gradientUnits="userSpaceOnUse" />
    <linearGradient
       y2="87.518288"
       y1="250.69432"
       xlink:href="#linearGradient4310"
       x2="479.8855"
       x1="438.73557"
       id="linearGradient4603"
       gradientUnits="userSpaceOnUse" />
    <linearGradient
       y2="937.55255"
       y1="411.32715"
       xlink:href="#linearGradient4536"
       x2="463.34772"
       x1="595.12415"
       id="linearGradient4534"
       gradientUnits="userSpaceOnUse" />
    <linearGradient
       y2="961.49091"
       y1="388.06464"
       xlink:href="#linearGradient4536"
       x2="670.03259"
       x1="756.4176"
       id="linearGradient4450"
       gradientUnits="userSpaceOnUse" />
    <linearGradient
       y2="286.08713"
       y1="824.17444"
       x2="704.56348"
       x1="622.62555"
       id="linearGradient4634"
       gradientUnits="userSpaceOnUse">
      <stop
         id="stop3048"
         stop-color="#b58b00"
         offset="0" />
      <stop
         id="stop3050"
         stop-color="#e4af00"
         offset="1" />
    </linearGradient>
    <linearGradient
       x2="540.25"
       x1="490.21875"
       id="linearGradient4618"
       gradientUnits="userSpaceOnUse">
      <stop
         id="stop3043"
         stop-color="#cfe96d"
         offset="0" />
      <stop
         id="stop3045"
         stop-color="#dfff57"
         offset="1" />
    </linearGradient>
    <linearGradient
       y2="860.56451"
       y1="421.53394"
       x2="825.9068"
       x1="891.9198"
       id="linearGradient4475"
       gradientUnits="userSpaceOnUse">
      <stop
         id="stop3034"
         stop-color="#ffe627"
         offset="0" />
      <stop
         id="stop3036"
         stop-color="#ffc200"
         offset=".48058" />
      <stop
         id="stop3038"
         stop-color="#f4ac00"
         offset=".72481" />
      <stop
         id="stop3040"
         stop-color="#d78b00"
         offset="1" />
    </linearGradient>
    <linearGradient
       y2="855.08984"
       y1="305.01965"
       x2="148.84332"
       x1="181.75433"
       id="linearGradient4473"
       gradientUnits="userSpaceOnUse">
      <stop
         id="stop3025"
         stop-color="#ffdc10"
         offset="0" />
      <stop
         id="stop3027"
         stop-color="#f4b908"
         offset=".36213" />
      <stop
         id="stop3029"
         stop-color="#eea704"
         offset=".75" />
      <stop
         id="stop3031"
         stop-color="#da9302"
         offset="1" />
    </linearGradient>
    <linearGradient
       y2="912.49756"
       y1="341.0159"
       x2="288.56039"
       x1="301.80026"
       id="linearGradient4463"
       gradientUnits="userSpaceOnUse">
      <stop
         id="stop3016"
         stop-color="#ffdc10"
         offset="0" />
      <stop
         id="stop3018"
         stop-color="#f4b908"
         offset=".39532" />
      <stop
         id="stop3020"
         stop-color="#eea704"
         offset=".75" />
      <stop
         id="stop3022"
         stop-color="#c68000"
         offset="1" />
    </linearGradient>
    <linearGradient
       id="linearGradient4310">
      <stop
         id="stop3011"
         stop-color="#398c24"
         offset="0" />
      <stop
         id="stop3013"
         stop-color="#63c44b"
         offset="1" />
    </linearGradient>
    <linearGradient
       id="linearGradient4536">
      <stop
         id="stop3002"
         stop-color="#ffe627"
         offset="0" />
      <stop
         id="stop3004"
         stop-color="#ffc200"
         offset=".44962" />
      <stop
         id="stop3006"
         stop-color="#f4ac00"
         offset=".72481" />
      <stop
         id="stop3008"
         stop-color="#d78b00"
         offset="1" />
    </linearGradient>
    <filter
       y="-0.31285"
       x="-0.040739998"
       width="1.08148"
       id="filter4334"
       height="1.62569"
       color-interpolation-filters="sRGB">
      <feGaussianBlur
         id="feGaussianBlur2999"
         stdDeviation="9.9696" />
    </filter>
    <filter
       id="filter4530"
       color-interpolation-filters="sRGB">
      <feGaussianBlur
         id="feGaussianBlur2996"
         stdDeviation="2.43662" />
    </filter>
    <filter
       id="filter4518"
       color-interpolation-filters="sRGB">
      <feGaussianBlur
         id="feGaussianBlur2993"
         stdDeviation="1.18773" />
    </filter>
    <filter
       id="filter4510"
       color-interpolation-filters="sRGB">
      <feGaussianBlur
         id="feGaussianBlur2990"
         stdDeviation="5.03381" />
    </filter>
  </defs>
  <sodipodi:namedview
     id="base"
     pagecolor="#ffffff"
     bordercolor="#666666"
     borderopacity="1.0"
     inkscape:pageopacity="0.0"
     inkscape:pageshadow="2"
     inkscape:zoom="0.35"
     inkscape:cx="359.90518"
     inkscape:cy="164.27801"
     inkscape:document-units="px"
     inkscape:current-layer="layer1"
     showgrid="false"
     fit-margin-top="0"
     fit-margin-left="0"
     fit-margin-right="0"
     fit-margin-bottom="0"
     inkscape:window-width="1366"
     inkscape:window-height="705"
     inkscape:window-x="-8"
     inkscape:window-y="-8"
     inkscape:window-maximized="1" />
  <metadata
     id="metadata7">
    <rdf:RDF>
      <cc:Work
         rdf:about="">
        <dc:format>image/svg+xml</dc:format>
        <dc:type
           rdf:resource="http://purl.org/dc/dcmitype/StillImage" />
        <dc:title></dc:title>
      </cc:Work>
    </rdf:RDF>
  </metadata>
  <g
     inkscape:label="Layer 1"
     inkscape:groupmode="layer"
     id="layer1"
     transform="translate(-15.094821,-39.512736)">
    <g
       id="g3058"
       transform="matrix(0.63491372,0,0,0.68656212,-5.0530914,-15.875443)">
      <path
         id="path3060"
         d="m 344.84877,266.94151 c 0,0 -33.44688,-13.35878 -74.22579,-2.66896 -87.59017,22.96096 -173.42075,103.3368 -208.47992,197.45455 -65.6146,176.14502 2.26484,374.97199 109.9197,427.31704 37.2634,13.03322 61.80895,-5.01153 61.80895,-5.01153 0,0 11.05178,15.27787 30.06923,30.06922 29.84533,23.73847 79.70907,29.82059 110.2538,21.71665 29.06534,25.72296 70.4456,33.59856 120.27689,35.08076 45.52141,1.5647 84.69155,-9.23379 105.24227,-30.06922 0,0 30.03198,12.77608 51.78588,11.69358 54.6799,-2.72093 95.19082,-30.31327 111.78383,-58.93962 0,0 27.68871,12.58866 62.03297,-4.95747 C 943.86817,828.05971 1032.1863,627.68883 927.55193,409.85769 884.46842,320.1651 790.08626,273.12804 726.53716,261.20768 c -46.69233,-8.75841 -90.64338,-18.95821 -173.18481,2.16877 -71.81185,-11.7318 -129.2247,-13.16094 -208.50358,3.56506 z"
         inkscape:connector-curvature="0"
         style="fill:#ffac00;fill-opacity:0.50286027;stroke:url(#linearGradient4634);stroke-width:9.19999981" />
      <path
         id="path3062"
         transform="matrix(1.12121,0,0,2.88188,-61.48229,-1601.1301)"
         d="m 800.89349,853.53027 a 293.66095,38.24086 0 1 1 -587.3219,0 293.66095,38.24086 0 1 1 587.3219,0 z"
         inkscape:connector-curvature="0"
         style="opacity:0.61881002;fill-opacity:0.58115001;filter:url(#filter4334)" />
      <path
         id="path3064"
         d="m 344.84877,266.94151 c 0,0 -33.44688,-13.35878 -74.22579,-2.66896 -87.59017,22.96096 -173.42075,103.3368 -208.47992,197.45455 -65.6146,176.14502 2.26484,374.97199 109.9197,427.31704 37.2634,13.03322 61.80895,-5.01153 61.80895,-5.01153 0,0 11.05178,15.27787 30.06923,30.06922 29.84533,23.73847 79.70907,29.82059 110.2538,21.71665 29.06534,25.72296 70.4456,33.59856 120.27689,35.08076 45.52141,1.5647 84.69155,-9.23379 105.24227,-30.06922 0,0 30.03198,12.77608 51.78588,11.69358 54.6799,-2.72093 95.19082,-30.31327 111.78383,-58.93962 0,0 27.68871,12.58866 62.03297,-4.95747 C 943.86817,828.05971 1032.1863,627.68883 927.55193,409.85769 884.46842,320.1651 790.08626,273.12804 726.53716,261.20768 c -46.69233,-8.75841 -90.64338,-18.95821 -173.18481,2.16877 -71.81185,-11.7318 -129.2247,-13.16094 -208.50358,3.56506 z"
         inkscape:connector-curvature="0"
         style="fill:url(#linearGradient4475)" />
      <path
         id="path3066"
         d="m 458.125,254.46869 c -35.21188,-0.18469 -71.16434,3.58306 -113.28125,12.46875 0,0 -33.43984,-13.34607 -74.21875,-2.65625 -87.59017,22.96096 -173.40958,103.31975 -208.46875,197.4375 -65.6146,176.14502 2.25139,374.96745 109.90625,427.3125 37.2634,13.03322 61.8125,-5 61.8125,-5 0,0 11.04505,15.27115 30.0625,30.0625 29.84533,23.73847 79.70527,29.82269 110.25,21.71875 26.31853,23.29202 62.76186,31.93978 106.40625,34.46875 V 255.12494 c -7.49036,-0.38647 -14.96436,-0.61689 -22.46875,-0.65625 z"
         inkscape:connector-curvature="0"
         style="fill:url(#linearGradient4473)" />
      <path
         id="path3068"
         d="m 555.625,270.40619 c -10.25347,-0.0457 -20.63508,0.46274 -31.15625,1.46875 l -15.8125,15.78125 c 0,0 78.94751,129.80496 101.75,282.40625 17.31417,115.87174 -12.85753,301.2503 -28.40625,383.90625 6.84773,-3.79422 12.82048,-8.15886 17.71875,-13.125 0,0 30.02735,12.77 51.78125,11.6875 54.6799,-2.72093 95.18824,-30.31115 111.78125,-58.9375 l 0.25,0.0937 C 800.62211,794.20464 844.59377,661.91191 837.87493,571.87936 812.96293,342.72411 676.61598,270.94571 555.625,270.40619 z"
         inkscape:connector-curvature="0"
         style="fill:url(#linearGradient4450);filter:url(#filter4518)" />
      <path
         id="path3070"
         d="m 455.25,263.71869 c -13.08788,0.19337 -43.0625,15.15625 -43.0625,15.15625 0,0 -264.85586,-17.52615 -259.59375,278.90625 2.85662,160.9226 43.98134,264.95669 80.96875,326.46875 l 0.3125,-0.21875 c 0,0 11.04505,15.27115 30.0625,30.0625 29.84533,23.73847 79.70527,29.82269 110.25,21.71875 11.64268,10.30382 25.27867,17.74991 40.625,23.0625 -12.5847,-30.24782 -28.41042,-86.01218 -39.4375,-187.09375 -21.04845,-192.94417 26.30126,-431.5079 71.90625,-482.375 17.81445,-19.86996 16.35842,-25.81145 7.96875,-25.6875 z"
         inkscape:connector-curvature="0"
         style="fill:url(#linearGradient4463);filter:url(#filter4530)" />
      <path
         id="path3072"
         d="m 481.0625,256.59369 c -13.18794,0.16828 -28.68756,6.88813 -48.15625,23.1875 -62.0512,51.94984 -115.54596,114.85132 -114,340.5625 1.21463,177.33806 37.18532,274.91232 62.3125,321.15625 28.54841,21.21726 67.30237,28.03957 113.25,29.40625 45.52141,1.5647 84.69928,-9.22707 105.25,-30.0625 l 0.375,0.15625 c 17.90819,-53.70142 49.7331,-178.33471 39.1875,-363.9375 C 627.56819,370.9125 541.14577,299.99501 519.5,276.90619 508.00069,264.64025 496.00883,256.40297 481.0625,256.59369 z"
         inkscape:connector-curvature="0"
         style="fill:url(#linearGradient4534);filter:url(#filter4510)" />
      <path
         id="path3074"
         d="m 406.93678,306.95414 c 0,0 33.32672,-10.52422 57.88325,-12.27826 24.55653,-1.75404 54.37517,7.01615 66.65344,8.77019 12.27827,1.75404 19.29442,5.26211 19.29442,5.26211 0,0 -3.50808,-17.54038 3.50807,-24.55653 7.01615,-7.01615 12.27826,-14.0323 12.27826,-14.0323 0,0 -80.68573,-17.54037 -63.14535,-92.964 8.74992,-37.62465 36.83479,-73.6696 36.83479,-73.6696 0,0 -0.98423,-15.59584 -10.52423,-17.54038 -8.76368,-1.7863 -26.31057,-5.26211 -26.31057,-5.26211 l -12.27826,7.01615 c 0,0 -43.32168,63.74244 -54.37518,124.53669 -7.01615,38.58883 -24.55652,54.37517 -24.55652,54.37517 l -47.35903,14.03231 c 0,0 28.06461,3.50808 35.08076,10.52423 7.01615,7.01615 7.01615,15.78633 7.01615,15.78633 z"
         inkscape:connector-curvature="0"
         style="fill:url(#linearGradient4605)" />
      <path
         id="path3076"
         transform="translate(0,52.36218)"
         d="m 503.03125,37.34375 c 0,0 -13.24198,10.9722 -19.3125,24.125 -9.64254,20.89217 -31.31706,53.83189 -34.53125,100.4375 -3.05835,44.34597 -27.65095,76.85071 -42.25,92.46875 0.002,0.0762 0,0.21875 0,0.21875 0,0 33.31847,-10.52721 57.875,-12.28125 24.55653,-1.75404 54.37798,7.02721 66.65625,8.78125 9.93198,1.41886 16.19525,3.88341 18.3125,4.8125 -6.78277,-6.3364 -16.83421,-15.86546 -29.09375,-28.125 -21.69571,-21.69572 -26.64655,-58.10968 -27.3125,-82.75 -0.80354,-29.73117 30.53143,-78.73685 36.15625,-85.96875 5.62482,-7.2319 4.03125,-17.6875 4.03125,-17.6875 l -30.53125,-4.03125 z"
         inkscape:connector-curvature="0"
         style="fill:url(#linearGradient4603)" />
      <path
         id="path3078"
         transform="translate(0,52.36218)"
         d="m 503.40625,28.3125 -12.28125,7.03125 -0.90625,1.375 c 0.21829,0.49858 0.50891,0.87231 0.90625,1.03125 2.85533,1.14213 2.41254,5.26753 5.125,7.4375 2.85532,2.28426 10.28936,-1.16227 16,3.40625 5.71064,4.56852 21.125,1.15625 21.125,1.15625 l 6.75,1.53125 0.125,-0.15625 c 0,0 -0.99125,-15.58671 -10.53125,-17.53125 -8.76368,-1.7863 -26.3125,-5.28125 -26.3125,-5.28125 z"
         inkscape:connector-curvature="0"
         style="fill:url(#linearGradient4618)" />
    </g>
  </g>
</svg>
