<?xml version="1.0" encoding="UTF-8"?>
<!DOCTYPE svg PUBLIC "-//W3C//DTD SVG 1.1//EN" "http://www.w3.org/Graphics/SVG/1.1/DTD/svg11.dtd">
<!-- Creator: CorelDRAW -->
<svg xmlns="http://www.w3.org/2000/svg" xml:space="preserve" width="210mm" height="210mm" style="shape-rendering:geometricPrecision; text-rendering:geometricPrecision; image-rendering:optimizeQuality; fill-rule:evenodd; clip-rule:evenodd"
viewBox="0 0 210 210">
 <defs>
  <style type="text/css">
   <![CDATA[
    .str0 {stroke:black;stroke-width:0.0762}
    .fil0 {fill:black}
    .fil4 {fill:#CC6633}
    .fil1 {fill:#FF6600}
    .fil2 {fill:yellow}
    .fil3 {fill:#FFFF99}
    .fil5 {fill:#691E1E}
   ]]>
  </style>
 </defs>
 <polygon class="fil0" points="0,0 210,0 210,210 0,210 "/>
 <g id="Camada_x0020_1">
  <metadata id="CorelCorpID_0Corel-Layer"/>
  <path class="fil1 str0" d="M68.9777 63.2512c-5.6834,-3.6536 -12.5846,-10.5548 -16.6441,-12.5846 -5.6834,-2.8416 -6.4953,-8.525 -11.3667,-3.6535 -16.2382,16.2381 18.6738,41.0013 35.7239,41.0013l13.8024 0c8.1191,0 -7.3071,-12.1786 -8.525,-13.3965 -3.6536,-3.6536 -6.9012,-11.3667 -12.9905,-11.3667z"/>
  <path class="fil1 str0" d="M154.813 63.2512c5.6834,-3.6536 12.5846,-10.5548 16.6441,-12.5846 5.6834,-2.8416 6.4953,-8.525 11.3667,-3.6535 16.2382,16.2381 -18.6738,41.0013 -35.7239,41.0013l-13.8024 0c-8.1191,0 7.3071,-12.1786 8.525,-13.3965 3.6536,-3.6536 6.9012,-11.3667 12.9905,-11.3667z"/>
  <path class="fil1 str0" d="M26.851 103.161c2.2985,15.6298 17.4686,52.8655 38.1551,32.179 3.2179,-3.2179 7.3552,5.9761 7.3552,7.8149 0,15.1701 35.3969,-7.8149 38.1551,-2.2985 5.0567,10.5731 12.8716,9.194 17.9283,6.8955 2.7582,-1.3791 13.3313,-14.2507 16.5492,-11.0328 4.1373,4.1373 6.8955,11.9522 15.6298,3.2179 6.4358,-6.4358 16.5492,-10.1134 20.6865,-18.388 0.4597,-1.3791 8.7343,-18.8477 9.194,-19.3074 4.1373,-4.1373 0,21.6059 -0.4597,22.985 -3.2179,10.5731 -12.4119,30.3402 -20.2268,38.1551 -6.8955,6.8955 -18.388,-0.9194 -18.388,-6.8955 0,-0.9194 -11.4925,12.4119 -14.2507,15.1701 -3.6776,3.6776 -18.388,-5.9761 -21.6059,-9.194 -7.8149,-7.8149 -15.6298,24.3641 -32.179,7.8149 -1.8388,-1.8388 -10.1134,-5.0567 -10.1134,-8.2746 0,-15.6298 -36.776,19.7671 -36.776,-9.194 0,-4.597 -9.6537,-15.6298 -9.6537,-22.5253 0,-4.1373 -1.8388,-26.2029 0,-27.1223z"/>
  <polygon class="fil2" points="52.5368,50.8108 50.0743,49.4059 48.2672,47.7501 45.2467,50.8109 46.2522,54.9594 45.0695,57.9055 44.3679,61.2447 44.3531,63.8011 46.5824,64.612 47.4318,66.8964 49.3945,68.0326 56.5599,75.5751 67.1195,81.232 75.0391,83.8719 83.21,84.7512 90.5007,83.2433 79.8158,72.9352 77.3829,69.2819 75.2305,66.6254 72.5253,64.5136 70.6387,63.7591 68.626,63.6314 59.1836,55.8961 55.0249,52.7209 "/>
  <polygon class="fil2" points="173.372,50.8108 175.834,49.4059 177.641,47.7501 180.662,50.8109 179.656,54.9594 180.839,57.9055 181.541,61.2447 181.555,63.8011 179.326,64.612 178.477,66.8964 176.514,68.0326 169.349,75.5751 158.789,81.232 150.869,83.8719 142.699,84.7512 135.408,83.2433 146.093,72.9352 148.526,69.2819 150.678,66.6254 153.383,64.5136 155.27,63.7591 157.283,63.6314 166.725,55.8961 170.884,52.7209 "/>
  <polygon class="fil3" points="56.07,55.1569 54.1058,54.0363 52.6644,52.7155 50.2551,55.1569 51.0571,58.466 50.1137,60.816 49.5541,63.4794 49.5423,65.5186 51.3205,66.1653 51.998,67.9875 53.5636,68.8938 59.279,74.9101 67.7018,79.4223 74.0189,81.528 80.5364,82.2294 86.3518,81.0266 77.829,72.8044 75.8884,69.8903 74.1716,67.7713 72.0138,66.0869 70.5089,65.4851 68.9035,65.3832 61.3718,59.2131 58.0547,56.6805 "/>
  <polygon class="fil3" points="170.879,55.1569 172.843,54.0363 174.285,52.7155 176.694,55.1569 175.892,58.466 176.835,60.816 177.395,63.4794 177.406,65.5186 175.628,66.1653 174.951,67.9875 173.385,68.8938 167.67,74.9101 159.247,79.4223 152.93,81.528 146.412,82.2294 140.597,81.0266 149.12,72.8044 151.06,69.8903 152.777,67.7713 154.935,66.0869 156.44,65.4851 158.045,65.3832 165.577,59.2131 168.894,56.6805 "/>
  <path class="fil2" d="M30.3926 118.835c2.2049,11.0813 16.7571,37.4808 36.601,22.8144 3.0868,-2.2814 7.0556,4.237 7.0556,5.5407 0,10.7553 33.9551,-5.5407 36.601,-1.6296 4.8507,7.4961 12.3473,6.5184 17.198,4.8888 2.6459,-0.9778 12.7883,-10.1035 15.8751,-7.8221 3.9688,2.9333 6.6147,8.4739 14.9932,2.2814 6.1736,-4.5628 15.8751,-7.1702 19.8439,-13.0368 0.441,-0.9777 8.3785,-13.3627 8.8195,-13.6886 3.9688,-2.9333 0,15.3182 -0.441,16.296 -3.0868,7.4961 -11.9063,21.5107 -19.4029,27.0513 -6.6146,4.8888 -17.639,-0.6518 -17.639,-4.8888 0,-0.6518 -11.0244,8.7999 -13.6703,10.7554 -3.5278,2.6073 -17.639,-4.237 -20.7258,-6.5184 -7.4966,-5.5406 -14.9932,17.2737 -30.8683,5.5406 -1.7639,-1.3036 -9.7014,-3.5851 -9.7014,-5.8665 0,-11.0813 -35.2781,14.0145 -35.2781,-6.5184 0,-3.2592 -9.2605,-11.0813 -9.2605,-15.9701 0,-2.9333 -1.7639,-18.5774 0,-19.2293z"/>
  <polygon class="fil3" points="33.5562,129.707 34.8096,138.868 38.9876,145.738 42.5389,152.608 47.9703,154.669 57.1619,155.586 66.1446,152.837 70.7404,156.501 79.7231,158.105 88.9147,156.731 96.8529,157.876 106.671,155.815 117.952,159.937 126.099,160.624 135.917,155.357 143.647,154.44 154.718,155.815 165.372,152.837 172.266,147.112 186.68,125.127 185.844,121.921 177.906,134.517 169.341,141.158 155.763,149.402 150.54,151.005 143.647,147.799 137.588,150.547 126.517,154.44 116.281,153.753 110.014,149.173 94.555,152.15 82.021,153.753 73.4561,151.921 69.6959,146.883 62.8022,146.883 51.5216,150.089 41.0766,143.448 35.8541,133.83 "/>
  <ellipse class="fil4" cx="73.4471" cy="70.7777" rx="5.94165" ry="5.9161"/>
  <ellipse class="fil5" cx="74.0236" cy="70.2908" rx="4.5623" ry="4.54269"/>
  <ellipse class="fil4" cx="152.187" cy="70.7777" rx="5.94165" ry="5.9161"/>
  <ellipse class="fil5" cx="151.611" cy="70.2908" rx="4.5623" ry="4.54269"/>
 </g>
</svg>
